<svg width="37" height="36" viewBox="0 0 37 36" fill="none" xmlns="http://www.w3.org/2000/svg">
<path d="M10.3024 34.4392H5.32096C4.44018 34.4392 3.59549 34.0963 2.97269 33.4859C2.34989 32.8755 2 32.0476 2 31.1843V19.7921C2 18.9289 2.34989 18.101 2.97269 17.4906C3.59549 16.8802 4.44018 16.5372 5.32096 16.5372H10.3024M21.9257 13.2823V6.7725C21.9257 5.47762 21.4009 4.23577 20.4667 3.32015C19.5325 2.40453 18.2655 1.89014 16.9443 1.89014L10.3024 16.5372V34.4392H29.0326C29.8335 34.4481 30.6107 34.173 31.2209 33.6646C31.8312 33.1562 32.2335 32.4487 32.3536 31.6726L34.645 17.0255C34.7173 16.559 34.6852 16.0827 34.5509 15.6295C34.4167 15.1764 34.1836 14.7573 33.8677 14.4012C33.5518 14.0452 33.1607 13.7607 32.7215 13.5675C32.2823 13.3743 31.8054 13.277 31.3241 13.2823H21.9257Z" stroke="#FD9339" stroke-width="3" stroke-linecap="round" stroke-linejoin="round"/>
</svg>
