<svg width="30" height="30" viewBox="0 0 30 30" fill="none" xmlns="http://www.w3.org/2000/svg">
<path d="M22.5 10H23.75C25.1313 10 26.25 11.1188 26.25 12.5V21.25C26.25 22.6313 25.1313 23.75 23.75 23.75H10C8.61875 23.75 7.5 22.6313 7.5 21.25V20" stroke="white" stroke-width="2" stroke-linecap="round" stroke-linejoin="round"/>
<path d="M6.35375 19.2713H19.895C21.3338 19.2713 22.4988 18.105 22.4988 16.6675V8.855C22.5 7.41625 21.3337 6.25 19.8962 6.25H6.35375C4.91625 6.25 3.75 7.41625 3.75 8.85375V16.6663C3.75 18.105 4.91625 19.2713 6.35375 19.2713Z" stroke="white" stroke-width="2" stroke-linecap="round" stroke-linejoin="round"/>
<path d="M18.125 10H18.75" stroke="white" stroke-width="2" stroke-linecap="round" stroke-linejoin="round"/>
<path d="M7.5 15.625H8.125" stroke="white" stroke-width="2" stroke-linecap="round" stroke-linejoin="round"/>
<path d="M14.5707 11.3788C15.3332 12.1413 15.3332 13.3788 14.5707 14.1413C13.8082 14.9038 12.5707 14.9038 11.8082 14.1413C11.0457 13.3788 11.0457 12.1413 11.8082 11.3788C12.5707 10.6163 13.8082 10.6163 14.5707 11.3788Z" stroke="white" stroke-width="2" stroke-linecap="round" stroke-linejoin="round"/>
</svg>
