<svg width="14" height="14" viewBox="0 0 14 14" fill="none" xmlns="http://www.w3.org/2000/svg">
<path d="M6.14199 7.858C5.26449 6.9805 4.60299 5.998 4.16349 5.00125C4.07049 4.7905 4.12524 4.54375 4.28799 4.381L4.90224 3.7675C5.40549 3.26425 5.40549 2.5525 4.96599 2.113L4.08549 1.2325C3.49974 0.646752 2.55024 0.646752 1.96449 1.2325L1.47549 1.7215C0.919737 2.27725 0.687987 3.079 0.837987 3.874C1.20849 5.83375 2.34699 7.9795 4.18374 9.81625C6.02049 11.653 8.16624 12.7915 10.126 13.162C10.921 13.312 11.7227 13.0803 12.2785 12.5245L12.7667 12.0363C13.3525 11.4505 13.3525 10.501 12.7667 9.91525L11.887 9.0355C11.4475 8.596 10.735 8.596 10.2962 9.0355L9.61898 9.7135C9.45624 9.87625 9.20949 9.931 8.99874 9.838C8.00199 9.39775 7.01949 8.7355 6.14199 7.858V7.858Z" stroke="#FD9339" stroke-linecap="round" stroke-linejoin="round"/>
</svg>
