<svg width="20" height="20" viewBox="0 0 20 20" fill="none" xmlns="http://www.w3.org/2000/svg">
<path d="M15.0006 17.5H5.00065C4.78176 17.5001 4.56501 17.457 4.36277 17.3733C4.16054 17.2895 3.97678 17.1668 3.82201 17.012C3.66723 16.8572 3.54447 16.6735 3.46073 16.4712C3.37699 16.269 3.33392 16.0522 3.33398 15.8333V7.08334C3.33411 6.75186 3.46584 6.43399 3.70024 6.19959C3.93463 5.9652 4.2525 5.83346 4.58398 5.83334H15.4173C15.7488 5.83346 16.0667 5.9652 16.3011 6.19959C16.5355 6.43399 16.6672 6.75186 16.6673 7.08334V15.8333C16.6674 16.0522 16.6243 16.269 16.5406 16.4712C16.4568 16.6735 16.3341 16.8572 16.1793 17.012C16.0245 17.1668 15.8408 17.2895 15.6385 17.3733C15.4363 17.457 15.2195 17.5001 15.0006 17.5V17.5Z" stroke="#4E2D2D" stroke-width="1.3" stroke-linecap="round" stroke-linejoin="round"/>
<path d="M11.2958 11.0198L9.67501 12.6406L8.70312 11.6677" stroke="#4E2D2D" stroke-width="1.3" stroke-linecap="round" stroke-linejoin="round"/>
<path d="M6.66602 5.83333V5.625C6.66604 4.7962 6.99528 4.00136 7.58133 3.41531C8.16738 2.82927 8.96222 2.50002 9.79102 2.5H10.2077C11.0365 2.50002 11.8313 2.82927 12.4174 3.41531C13.0034 4.00136 13.3327 4.7962 13.3327 5.625V5.625V5.83333" stroke="#4E2D2D" stroke-width="1.3" stroke-linecap="round" stroke-linejoin="round"/>
</svg>
