<svg width="20" height="20" viewBox="0 0 20 20" fill="none" xmlns="http://www.w3.org/2000/svg">
<path d="M6.59518 3.8215C7.24605 4.47237 7.24605 5.52765 6.59518 6.17852C5.94431 6.8294 4.88903 6.8294 4.23816 6.17852C3.58728 5.52765 3.58728 4.47237 4.23816 3.8215C4.88903 3.17062 5.9443 3.17062 6.59518 3.8215" stroke="#4E2D2D" stroke-width="1.3" stroke-linecap="round" stroke-linejoin="round"/>
<path d="M10.195 15H7.18917C5.98 15 5 13.8808 5 12.5008V12.4983C5 11.1183 5.98 9.99917 7.18917 9.99917H12.81C14.0192 9.99917 14.9992 8.88 14.9992 7.5C15 6.1175 14.0183 4.99834 12.8083 5L9.375 5.00417" stroke="#4E2D2D" stroke-width="1.3" stroke-linecap="round" stroke-linejoin="round"/>
<path d="M13.616 16.82L16.0235 15.3958C16.3243 15.2175 16.3243 14.7817 16.0235 14.6042L13.616 13.18C13.3068 12.9967 12.916 13.22 12.916 13.5792V16.4208C12.916 16.78 13.3068 17.0033 13.616 16.82Z" stroke="#4E2D2D" stroke-width="1.3" stroke-linecap="round" stroke-linejoin="round"/>
</svg>
