<svg width="20" height="20" viewBox="0 0 20 20" fill="none" xmlns="http://www.w3.org/2000/svg">
<path d="M2.5 10H11.6667" stroke="#4E2D2D" stroke-width="1.3" stroke-linecap="round" stroke-linejoin="round"/>
<path d="M9.16602 7.5L11.666 10L9.16602 12.5" stroke="#4E2D2D" stroke-width="1.3" stroke-linecap="round" stroke-linejoin="round"/>
<path d="M5 7.61416V6.16666C5.00023 5.7815 5.13385 5.40832 5.37814 5.11055C5.62244 4.81278 5.96232 4.60882 6.34 4.53332L15.5067 2.52832C15.7596 2.49911 16.0158 2.52422 16.2582 2.60198C16.5006 2.67974 16.7236 2.80836 16.9123 2.97923C17.101 3.1501 17.251 3.35929 17.3524 3.59281C17.4537 3.82632 17.5041 4.07879 17.5 4.33332V15.8333C17.5001 16.0762 17.4472 16.3161 17.3448 16.5363C17.2425 16.7566 17.0933 16.9518 16.9076 17.1083C16.722 17.2649 16.5043 17.3789 16.27 17.4426C16.0356 17.5062 15.7902 17.5178 15.5508 17.4767L6.38417 15.9C5.99668 15.8333 5.64523 15.6319 5.39193 15.3311C5.13864 15.0304 4.99982 14.6498 5 14.2567V12.4758" stroke="#4E2D2D" stroke-width="1.3" stroke-linecap="round" stroke-linejoin="round"/>
</svg>
