<svg width="30" height="30" viewBox="0 0 30 30" fill="none" xmlns="http://www.w3.org/2000/svg">
<path d="M25 13.75V23.75C25 24.413 24.7366 25.0489 24.2678 25.5178C23.7989 25.9866 23.163 26.25 22.5 26.25H7.5C6.83696 26.25 6.20107 25.9866 5.73223 25.5178C5.26339 25.0489 5 24.413 5 23.75V13.75" stroke="#FD9339" stroke-linecap="round" stroke-linejoin="round"/>
<path d="M17.5 13.75H24.375C24.8723 13.75 25.3492 13.5525 25.7008 13.2008C26.0525 12.8492 26.25 12.3723 26.25 11.875V10.625C26.25 10.1277 26.0525 9.65081 25.7008 9.29917C25.3492 8.94754 24.8723 8.75 24.375 8.75H5.625C5.12772 8.75 4.65081 8.94754 4.29917 9.29917C3.94754 9.65081 3.75 10.1277 3.75 10.625V11.875C3.75 12.3723 3.94754 12.8492 4.29917 13.2008C4.65081 13.5525 5.12772 13.75 5.625 13.75H12.5" stroke="#FD9339" stroke-linecap="round" stroke-linejoin="round"/>
<path d="M12.5 3.75C13.163 3.75 13.7989 4.01339 14.2678 4.48223C14.7366 4.95107 15 5.58696 15 6.25V8.75H12.5C11.837 8.75 11.2011 8.48661 10.7322 8.01777C10.2634 7.54893 10 6.91304 10 6.25C10 5.58696 10.2634 4.95107 10.7322 4.48223C11.2011 4.01339 11.837 3.75 12.5 3.75Z" stroke="#FD9339" stroke-linecap="round" stroke-linejoin="round"/>
<path d="M17.5 3.75C18.163 3.75 18.7989 4.01339 19.2678 4.48223C19.7366 4.95107 20 5.58696 20 6.25C20 6.91304 19.7366 7.54893 19.2678 8.01777C18.7989 8.48661 18.163 8.75 17.5 8.75H15V6.25C15 5.58696 15.2634 4.95107 15.7322 4.48223C16.2011 4.01339 16.837 3.75 17.5 3.75Z" stroke="#FD9339" stroke-linecap="round" stroke-linejoin="round"/>
<path d="M16.25 8.75H13.75C13.0596 8.75 12.5 9.30964 12.5 10V25C12.5 25.6904 13.0596 26.25 13.75 26.25H16.25C16.9404 26.25 17.5 25.6904 17.5 25V10C17.5 9.30964 16.9404 8.75 16.25 8.75Z" fill="white" stroke="#FD9339" stroke-linecap="round" stroke-linejoin="round"/>
</svg>
