<svg width="30" height="30" viewBox="0 0 30 30" fill="none" xmlns="http://www.w3.org/2000/svg">
<path d="M7.6575 17.25L3.75 21.25L6.875 23.125L8.75 26.25L13.6237 21.1313" stroke="#FD9339" stroke-linecap="round" stroke-linejoin="round"/>
<path d="M16.377 21.1313L21.2507 26.25L23.1257 23.125L26.2507 21.25L22.3432 17.25" stroke="#FD9339" stroke-linecap="round" stroke-linejoin="round"/>
<path d="M21.1872 6.31282C24.6043 9.7299 24.6043 15.2701 21.1872 18.6872C17.7701 22.1043 12.2299 22.1043 8.81282 18.6872C5.39573 15.2701 5.39573 9.7299 8.81282 6.31282C12.2299 2.89573 17.7701 2.89573 21.1872 6.31282Z" fill="white" stroke="#FD9339" stroke-linecap="round" stroke-linejoin="round"/>
<path d="M14.9985 15.73L17.2448 16.91C17.6823 17.14 18.1935 16.7687 18.1098 16.2812L17.681 13.78L19.4985 12.01C19.8523 11.665 19.6573 11.0637 19.1685 10.9925L16.6573 10.6275L15.5348 8.35125C15.316 7.9075 14.6848 7.9075 14.466 8.35125L13.3435 10.6275L10.831 10.9937C10.3423 11.065 10.1473 11.6662 10.501 12.0112L12.3185 13.7812L11.8898 16.2825C11.806 16.77 12.3173 17.1412 12.7548 16.9112L15.001 15.7312H14.9985V15.73Z" fill="#FEF5E2" stroke="#FD9339" stroke-linecap="round" stroke-linejoin="round"/>
</svg>
