<svg width="20" height="20" viewBox="0 0 20 20" fill="none" xmlns="http://www.w3.org/2000/svg">
<path d="M6.92839 6.4658C7.05498 6.59239 7.05498 6.79764 6.92839 6.92424C6.80179 7.05083 6.59654 7.05083 6.46995 6.92424C6.34335 6.79764 6.34335 6.59239 6.46995 6.4658C6.59654 6.3392 6.80179 6.3392 6.92839 6.4658" stroke="#4E2D2D" stroke-width="1.3" stroke-linecap="round" stroke-linejoin="round"/>
<path d="M6.03667 2.52085L8.41083 2.50001C8.85333 2.49585 9.27917 2.67084 9.5925 2.98334L17.0125 10.4067C17.6633 11.0575 17.6633 12.1133 17.0125 12.7642L12.7675 17.0117C12.1167 17.6633 11.06 17.6633 10.4092 17.0117L2.98333 9.58335C2.67417 9.27418 2.5 8.85418 2.5 8.41585V6.07251C2.5 5.63418 2.67417 5.21418 2.98333 4.90501L4.88333 3.00418C5.19 2.69751 5.60417 2.52418 6.03667 2.52085V2.52085Z" stroke="#4E2D2D" stroke-width="1.3" stroke-linecap="round" stroke-linejoin="round"/>
</svg>
