<svg width="20" height="18" viewBox="0 0 20 18" fill="none" xmlns="http://www.w3.org/2000/svg">
<path fill-rule="evenodd" clip-rule="evenodd" d="M12 11H14C14.552 11 15 11.448 15 12V16C15 16.552 14.552 17 14 17H12C11.448 17 11 16.552 11 16V12C11 11.448 11.448 11 12 11Z" stroke="#292929" stroke-width="1.3" stroke-linecap="round" stroke-linejoin="round"/>
<path d="M19 14H15" stroke="#292929" stroke-width="1.3" stroke-linecap="round" stroke-linejoin="round"/>
<path d="M11 14H1" stroke="#292929" stroke-width="1.3" stroke-linecap="round" stroke-linejoin="round"/>
<path fill-rule="evenodd" clip-rule="evenodd" d="M8 7H6C5.448 7 5 6.552 5 6V2C5 1.448 5.448 1 6 1H8C8.552 1 9 1.448 9 2V6C9 6.552 8.552 7 8 7Z" stroke="#292929" stroke-width="1.3" stroke-linecap="round" stroke-linejoin="round"/>
<path d="M1 4H5" stroke="#292929" stroke-width="1.3" stroke-linecap="round" stroke-linejoin="round"/>
<path d="M9 4H19" stroke="#292929" stroke-width="1.3" stroke-linecap="round" stroke-linejoin="round"/>
</svg>
