<svg width="14" height="14" viewBox="0 0 14 14" fill="none" xmlns="http://www.w3.org/2000/svg">
<path d="M6.14211 7.858C5.26461 6.9805 4.60311 5.998 4.16361 5.00125C4.07061 4.7905 4.12536 4.54375 4.28811 4.381L4.90236 3.7675C5.40561 3.26425 5.40561 2.5525 4.96611 2.113L4.08561 1.2325C3.49986 0.646752 2.55036 0.646752 1.96461 1.2325L1.47561 1.7215C0.919859 2.27725 0.688109 3.079 0.838109 3.874C1.20861 5.83375 2.34711 7.9795 4.18386 9.81625C6.02061 11.653 8.16636 12.7915 10.1261 13.162C10.9211 13.312 11.7229 13.0803 12.2786 12.5245L12.7669 12.0363C13.3526 11.4505 13.3526 10.501 12.7669 9.91525L11.8871 9.0355C11.4476 8.596 10.7351 8.596 10.2964 9.0355L9.61911 9.7135C9.45636 9.87625 9.20961 9.931 8.99886 9.838C8.00211 9.39775 7.01961 8.7355 6.14211 7.858V7.858Z" stroke="#FD9339" stroke-linecap="round" stroke-linejoin="round"/>
</svg>
