<svg width="22" height="22" viewBox="0 0 22 22" fill="none" xmlns="http://www.w3.org/2000/svg">
<path d="M18.333 2.75V10.0833" stroke="#4E2D2D" stroke-width="1.4" stroke-linecap="round" stroke-linejoin="round"/>
<path d="M20.1663 4.58333L18.333 2.75H3.66634H18.333H3.66634L1.83301 4.58333" stroke="#4E2D2D" stroke-width="1.4" stroke-linecap="round" stroke-linejoin="round"/>
<path d="M3.66699 2.75V17.4167C3.66699 17.9029 3.86015 18.3692 4.20396 18.713C4.54778 19.0568 5.0141 19.25 5.50033 19.25H7.33366" stroke="#4E2D2D" stroke-width="1.4" stroke-linecap="round" stroke-linejoin="round"/>
<path d="M4.04883 2.75L5.64346 5.14195C5.81088 5.39308 6.03771 5.59899 6.30381 5.7414C6.56992 5.88382 6.86707 5.95833 7.16889 5.95833H14.8315C15.1334 5.95833 15.4305 5.88382 15.6966 5.7414C15.9627 5.59899 16.1895 5.39308 16.357 5.14195L17.9516 2.75" stroke="#4E2D2D" stroke-width="1.4" stroke-linecap="round" stroke-linejoin="round"/>
<path d="M16.7194 20.1667H12.6146C12.4323 20.1667 12.2574 20.0942 12.1285 19.9653C11.9995 19.8364 11.9271 19.6615 11.9271 19.4792V18.6844C11.2262 18.2796 10.6194 17.7304 10.1469 17.0733C9.67434 16.4162 9.34686 15.6662 9.18615 14.8729C9.15694 14.7384 9.15806 14.5991 9.18942 14.4651C9.22079 14.3312 9.28162 14.2058 9.36748 14.0983C9.45335 13.9908 9.5621 13.9037 9.68583 13.8434C9.80955 13.7832 9.94515 13.7513 10.0828 13.75H19.2513C19.3889 13.7513 19.5245 13.7832 19.6482 13.8434C19.772 13.9037 19.8807 13.9907 19.9666 14.0983C20.0525 14.2058 20.1133 14.3311 20.1447 14.4651C20.176 14.5991 20.1772 14.7384 20.1479 14.8729C19.9872 15.6662 19.6597 16.4162 19.1872 17.0733C18.7146 17.7304 18.1078 18.2796 17.4069 18.6844V19.4792C17.4069 19.6615 17.3345 19.8364 17.2056 19.9653C17.0766 20.0942 16.9018 20.1667 16.7194 20.1667V20.1667Z" stroke="#4E2D2D" stroke-width="1.4" stroke-linecap="round" stroke-linejoin="round"/>
</svg>
