<svg width="20" height="20" viewBox="0 0 20 20" fill="none" xmlns="http://www.w3.org/2000/svg">
<path d="M15.3033 4.6967C18.2323 7.62563 18.2323 12.3744 15.3033 15.3033C12.3744 18.2322 7.62568 18.2322 4.69676 15.3033C1.76783 12.3743 1.76783 7.62562 4.69676 4.6967C7.62569 1.76777 12.3744 1.76777 15.3033 4.6967" stroke="#4E2D2D" stroke-width="1.3" stroke-linecap="round" stroke-linejoin="round"/>
<path d="M14.4226 16.0475C14.1026 14.5141 12.2542 13.3333 10.0001 13.3333C7.74589 13.3333 5.89755 14.5141 5.57755 16.0475" stroke="#4E2D2D" stroke-width="1.3" stroke-linecap="round" stroke-linejoin="round"/>
<path d="M11.7677 6.56554C12.7441 7.54185 12.7441 9.12477 11.7677 10.1011C10.7914 11.0774 9.20852 11.0774 8.23222 10.1011C7.25591 9.12477 7.25591 7.54185 8.23222 6.56554C9.20852 5.58924 10.7914 5.58924 11.7677 6.56554Z" stroke="#4E2D2D" stroke-width="1.3" stroke-linecap="round" stroke-linejoin="round"/>
</svg>
